<?xml version="1.0" encoding="UTF-8" standalone="no"?>
<!DOCTYPE svg PUBLIC "-//W3C//DTD SVG 1.1//EN"
 "http://www.w3.org/Graphics/SVG/1.1/DTD/svg11.dtd">
<!-- Generated by graphviz version 2.38.0 (20140413.2041)
 -->
<!-- Title: G Pages: 1 -->
<svg width="1101pt" height="623pt"
 viewBox="0.00 0.00 1101.33 623.00" xmlns="http://www.w3.org/2000/svg" xmlns:xlink="http://www.w3.org/1999/xlink">
<g id="graph0" class="graph" transform="scale(1 1) rotate(0) translate(4 619)">
<title>G</title>
<polygon fill="white" stroke="none" points="-4,4 -4,-619 1097.33,-619 1097.33,4 -4,4"/>
<g id="clust2" class="cluster"><title>cluster_inputs</title>
<polygon fill="none" stroke="black" stroke-dasharray="1,5" points="292.893,-8 292.893,-83 605.847,-83 605.847,-8 292.893,-8"/>
<text text-anchor="middle" x="449.37" y="-15.8" font-family="Times,serif" font-size="14.00">Input</text>
</g>
<g id="clust3" class="cluster"><title>cluster_not_implemented</title>
<polygon fill="none" stroke="black" stroke-dasharray="1,5" points="608.856,-91 608.856,-166 751.291,-166 751.291,-91 608.856,-91"/>
<text text-anchor="middle" x="680.073" y="-98.8" font-family="Times,serif" font-size="14.00">Not implemented</text>
</g>
<g id="clust4" class="cluster"><title>cluster_order_only</title>
<polygon fill="none" stroke="black" stroke-dasharray="1,5" points="629.92,-310 629.92,-385 872.661,-385 872.661,-310 629.92,-310"/>
<text text-anchor="middle" x="751.291" y="-317.8" font-family="Times,serif" font-size="14.00">Order only</text>
</g>
<g id="clust5" class="cluster"><title>cluster_result</title>
<polygon fill="none" stroke="black" stroke-dasharray="1,5" points="436.33,-532 436.33,-607 600.832,-607 600.832,-532 436.33,-532"/>
<text text-anchor="middle" x="518.581" y="-539.8" font-family="Times,serif" font-size="14.00">Result</text>
</g>
<g id="clust6" class="cluster"><title>cluster_tools</title>
<polygon fill="none" stroke="black" stroke-dasharray="1,5" points="912.783,-310 912.783,-385 1085.31,-385 1085.31,-310 912.783,-310"/>
<text text-anchor="middle" x="999.046" y="-317.8" font-family="Times,serif" font-size="14.00">Tools</text>
</g>
<!-- target1 -->
<g id="node1" class="node"><title>target1</title>
<g id="a_node1"><a xlink:href="logs/87c2513eef6d8961969f/target1/log.txt" xlink:title="target1">
<polygon fill="#c1b2ff" stroke="#c1b2ff" points="471.321,-377 417.321,-377 417.321,-341 471.321,-341 471.321,-377"/>
<text text-anchor="middle" x="444.321" y="-362" font-family="Times,serif" font-size="10.00">target1</text>
<text text-anchor="end" x="463.321" y="-351" font-family="Times,serif" font-size="10.00">0:00:01</text>
</a>
</g>
</g>
<!-- all -->
<g id="node18" class="node"><title>all</title>
<g id="a_node18"><a xlink:title="Order only dependencies usually just clutter the graph so not rendered">
<polygon fill="lightgrey" stroke="black" points="570.321,-599 516.321,-599 516.321,-563 570.321,-563 570.321,-599"/>
<text text-anchor="middle" x="543.321" y="-578.5" font-family="Times,serif" font-size="10.00">all</text>
</a>
</g>
</g>
<!-- target1&#45;&gt;all -->
<g id="edge1" class="edge"><title>target1&#45;&gt;all</title>
<path fill="none" stroke="black" d="M442.84,-377.169C440.992,-410.14 441.897,-482.706 480.321,-524 488.847,-533.163 497.046,-524.854 507.321,-532 515.611,-537.765 522.785,-546.047 528.499,-554.113"/>
<polygon fill="black" stroke="black" points="525.693,-556.216 534.11,-562.65 531.543,-552.371 525.693,-556.216"/>
</g>
<!-- not_all -->
<g id="node19" class="node"><title>not_all</title>
<g id="a_node19"><a xlink:title="Second result target, builds just a part of pipeline">
<polygon fill="lightgrey" stroke="black" points="498.321,-599 444.321,-599 444.321,-563 498.321,-563 498.321,-599"/>
<text text-anchor="middle" x="471.321" y="-578.5" font-family="Times,serif" font-size="10.00">not_all</text>
</a>
</g>
</g>
<!-- target1&#45;&gt;not_all -->
<g id="edge2" class="edge"><title>target1&#45;&gt;not_all</title>
<path fill="none" stroke="black" d="M446.44,-377.263C451.112,-415.336 462.334,-506.769 467.971,-552.699"/>
<polygon fill="black" stroke="black" points="464.52,-553.318 469.212,-562.817 471.468,-552.465 464.52,-553.318"/>
</g>
<!-- forgot_to_touch -->
<g id="node2" class="node"><title>forgot_to_touch</title>
<g id="a_node2"><a xlink:href="logs/87c2513eef6d8961969f/forgot_to_touch/log.txt" xlink:title="Forgot to touch the file, visible in graph">
<polygon fill="lightgrey" stroke="black" points="487.821,-158 404.821,-158 404.821,-122 487.821,-122 487.821,-158"/>
<text text-anchor="middle" x="446.321" y="-143" font-family="Times,serif" font-size="10.00">forgot_to_touch</text>
<text text-anchor="end" x="479.821" y="-132" font-family="Times,serif" font-size="10.00">0:00:01</text>
</a>
</g>
</g>
<!-- forgot_to_touch&#45;&gt;target1 -->
<g id="edge3" class="edge"><title>forgot_to_touch&#45;&gt;target1</title>
<path fill="none" stroke="black" d="M446.164,-158.028C445.819,-195.489 444.991,-285.324 444.572,-330.736"/>
<polygon fill="black" stroke="black" points="441.072,-330.719 444.48,-340.751 448.072,-330.784 441.072,-330.719"/>
</g>
<!-- target13 -->
<g id="node3" class="node"><title>target13</title>
<g id="a_node3"><a xlink:href="logs/205649e261aee13df1eb/target13/log.txt" xlink:title="Sibling dependency 13 &#45;&gt; 11 is non&#45;essential, thus rendered in grey">
<polygon fill="#c1b2ff" stroke="#c1b2ff" points="348.321,-158 294.321,-158 294.321,-122 348.321,-122 348.321,-158"/>
<text text-anchor="middle" x="321.321" y="-143" font-family="Times,serif" font-size="10.00">target13</text>
<text text-anchor="end" x="340.321" y="-132" font-family="Times,serif" font-size="10.00">0:00:02</text>
</a>
</g>
</g>
<!-- target13&#45;&gt;target1 -->
<g id="edge4" class="edge"><title>target13&#45;&gt;target1</title>
<path fill="none" stroke="black" d="M348.649,-157.992C371.753,-172.463 401.41,-191.329 403.321,-194 432.905,-235.353 441.225,-295.847 443.512,-330.634"/>
<polygon fill="black" stroke="black" points="440.036,-331.168 444.062,-340.968 447.026,-330.796 440.036,-331.168"/>
</g>
<!-- cat_graph.png -->
<g id="node4" class="node"><title>cat_graph.png</title>
<g id="a_node4"><a xlink:href="logs/97ff796f7034c87e61fb/cat_graph.png/log.txt" xlink:title="If your target generates visual content, it will be embedded into graph">
<polygon fill="#c1b2ff" stroke="#c1b2ff" points="360.321,-524 0.321101,-524 0.321101,-194 360.321,-194 360.321,-524"/>
<image xlink:href="cat_graph.png" width="360px" height="329.874px" preserveAspectRatio="xMinYMin meet" x="0.321101" y="-523.937"/>
<text text-anchor="middle" x="180.321" y="-362" font-family="Times,serif" font-size="10.00">cat_graph.png</text>
<text text-anchor="end" x="352.321" y="-351" font-family="Times,serif" font-size="10.00">0:00:01</text>
</a>
</g>
</g>
<!-- cat_graph.png&#45;&gt;not_all -->
<g id="edge5" class="edge"><title>cat_graph.png&#45;&gt;not_all</title>
<path fill="none" stroke="black" d="M360.336,-513.222C365.348,-516.898 370.349,-520.497 375.321,-524 394.348,-537.403 416.758,-550.608 435.138,-560.826"/>
<polygon fill="black" stroke="black" points="433.624,-563.987 444.074,-565.736 436.995,-557.853 433.624,-563.987"/>
</g>
<!-- target3 -->
<g id="node5" class="node"><title>target3</title>
<g id="a_node5"><a xlink:href="logs/205649e261aee13df1eb/target3/log.txt" xlink:title="target3">
<polygon fill="#c1b2ff" stroke="#c1b2ff" points="598.321,-158 544.321,-158 544.321,-122 598.321,-122 598.321,-158"/>
<text text-anchor="middle" x="571.321" y="-143" font-family="Times,serif" font-size="10.00">target3</text>
<text text-anchor="end" x="590.321" y="-132" font-family="Times,serif" font-size="10.00">0:00:03</text>
</a>
</g>
</g>
<!-- target3&#45;&gt;all -->
<g id="edge6" class="edge"><title>target3&#45;&gt;all</title>
<path fill="none" stroke="black" d="M571.14,-158.23C570.426,-212.285 567.072,-383.3 552.321,-524 551.332,-533.432 549.814,-543.694 548.304,-552.825"/>
<polygon fill="black" stroke="black" points="544.815,-552.46 546.568,-562.908 551.714,-553.647 544.815,-552.46"/>
</g>
<!-- fails -->
<g id="node6" class="node"><title>fails</title>
<g id="a_node6"><a xlink:href="logs/87c2513eef6d8961969f/fails/log.txt" xlink:title="This target fails, thus rendered in red">
<polygon fill="#ffc9b2" stroke="#ffc9b2" points="543.321,-377 489.321,-377 489.321,-341 543.321,-341 543.321,-377"/>
<text text-anchor="middle" x="516.321" y="-362" font-family="Times,serif" font-size="10.00">fails</text>
<text text-anchor="end" x="535.321" y="-351" font-family="Times,serif" font-size="10.00">0:00:01</text>
</a>
</g>
</g>
<!-- fails&#45;&gt;all -->
<g id="edge7" class="edge"><title>fails&#45;&gt;all</title>
<path fill="none" stroke="black" d="M518.44,-377.263C523.112,-415.336 534.334,-506.769 539.971,-552.699"/>
<polygon fill="black" stroke="black" points="536.52,-553.318 541.212,-562.817 543.468,-552.465 536.52,-553.318"/>
</g>
<!-- _DUMMY -->
<!-- target11 -->
<g id="node8" class="node"><title>target11</title>
<g id="a_node8"><a xlink:href="logs/31794426f0947391ec99/target11/log.txt" xlink:title="target11">
<polygon fill="#c1b2ff" stroke="#c1b2ff" points="499.321,-75 445.321,-75 445.321,-39 499.321,-39 499.321,-75"/>
<text text-anchor="middle" x="472.321" y="-60" font-family="Times,serif" font-size="10.00">target11</text>
<text text-anchor="end" x="491.321" y="-49" font-family="Times,serif" font-size="10.00">0:00:02</text>
</a>
</g>
</g>
<!-- target11&#45;&gt;target1 -->
<g id="edge8" class="edge"><title>target11&#45;&gt;target1</title>
<path fill="none" stroke="#000000" stroke-dasharray="5,2" stroke-opacity="0.200000" d="M450.694,-75.1309C446.142,-78.1178 441.227,-80.9265 436.321,-83 419.22,-90.2272 407.125,-76.6699 395.321,-91 374.128,-116.728 390.698,-132.989 395.321,-166 397.116,-178.817 399.973,-181.498 403.321,-194 416.143,-241.884 429.894,-297.974 437.766,-330.597"/>
<polygon fill="#000000" fill-opacity="0.200000" stroke="#000000" stroke-opacity="0.200000" points="434.458,-331.811 440.2,-340.715 441.264,-330.174 434.458,-331.811"/>
</g>
<!-- target11&#45;&gt;forgot_to_touch -->
<g id="edge9" class="edge"><title>target11&#45;&gt;forgot_to_touch</title>
<path fill="none" stroke="black" d="M466.807,-75.178C463.36,-85.9171 458.848,-99.9748 454.936,-112.163"/>
<polygon fill="black" stroke="black" points="451.551,-111.256 451.827,-121.847 458.216,-113.395 451.551,-111.256"/>
</g>
<!-- target11&#45;&gt;target13 -->
<g id="edge10" class="edge"><title>target11&#45;&gt;target13</title>
<path fill="none" stroke="black" d="M451.217,-75.2098C446.547,-78.2677 441.454,-81.0837 436.321,-83 405.33,-94.571 391.574,-75.5545 362.321,-91 352.436,-96.2194 343.919,-104.9 337.249,-113.454"/>
<polygon fill="black" stroke="black" points="334.218,-111.675 331.213,-121.834 339.898,-115.766 334.218,-111.675"/>
</g>
<!-- target11&#45;&gt;fails -->
<g id="edge11" class="edge"><title>target11&#45;&gt;fails</title>
<path fill="none" stroke="black" d="M487.488,-75.1076C490.982,-79.9405 494.271,-85.4138 496.321,-91 526.773,-173.964 523.025,-280.962 519.079,-330.538"/>
<polygon fill="black" stroke="black" points="515.569,-330.501 518.195,-340.765 522.543,-331.104 515.569,-330.501"/>
</g>
<!-- target2 -->
<g id="node9" class="node"><title>target2</title>
<g id="a_node9"><a xlink:href="logs/205649e261aee13df1eb/target2/log.txt" xlink:title="target2">
<polygon fill="#c1b2ff" stroke="#c1b2ff" points="355.321,-75 301.321,-75 301.321,-39 355.321,-39 355.321,-75"/>
<text text-anchor="middle" x="328.321" y="-60" font-family="Times,serif" font-size="10.00">target2</text>
<text text-anchor="end" x="347.321" y="-49" font-family="Times,serif" font-size="10.00">0:00:02</text>
</a>
</g>
</g>
<!-- target2&#45;&gt;cat_graph.png -->
<g id="edge12" class="edge"><title>target2&#45;&gt;cat_graph.png</title>
<path fill="none" stroke="black" d="M301.3,-57.565C274.206,-58.7134 233.428,-65.0571 211.321,-91 189.145,-117.024 177.124,-150.022 171.26,-183.87"/>
<polygon fill="black" stroke="black" points="167.777,-183.494 169.7,-193.913 174.694,-184.569 167.777,-183.494"/>
</g>
<!-- target2&#45;&gt;not_all -->
<g id="edge13" class="edge"><title>target2&#45;&gt;not_all</title>
<path fill="none" stroke="#000000" stroke-dasharray="5,2" stroke-opacity="0.200000" d="M301.018,-65.0659C287.793,-70.0133 273.119,-78.1121 265.321,-91 248.065,-119.519 245.045,-139.543 265.321,-166 294.439,-203.994 338.02,-157.784 369.321,-194 465.893,-305.738 340.005,-393.063 408.321,-524 414.848,-536.51 425.396,-547.541 436.009,-556.431"/>
<polygon fill="#000000" fill-opacity="0.200000" stroke="#000000" stroke-opacity="0.200000" points="434.057,-559.349 444.073,-562.802 438.396,-553.857 434.057,-559.349"/>
</g>
<!-- target12 -->
<g id="node10" class="node"><title>target12</title>
<g id="a_node10"><a xlink:href="logs/205649e261aee13df1eb/target12/log.txt" xlink:title="target12">
<polygon fill="#c1b2ff" stroke="#c1b2ff" points="427.321,-75 373.321,-75 373.321,-39 427.321,-39 427.321,-75"/>
<text text-anchor="middle" x="400.321" y="-60" font-family="Times,serif" font-size="10.00">target12</text>
<text text-anchor="end" x="419.321" y="-49" font-family="Times,serif" font-size="10.00">0:00:01</text>
</a>
</g>
</g>
<!-- target12&#45;&gt;target1 -->
<g id="edge14" class="edge"><title>target12&#45;&gt;target1</title>
<path fill="none" stroke="black" d="M379.227,-75.2367C374.556,-78.2927 369.46,-81.101 364.321,-83 347.77,-89.1161 297.153,-77.9094 285.321,-91 262.97,-115.729 264.65,-139.85 285.321,-166 318.747,-208.285 364.98,-156.116 403.321,-194 440.025,-230.266 445.652,-294.07 445.577,-330.483"/>
<polygon fill="black" stroke="black" points="442.071,-330.784 445.398,-340.843 449.07,-330.905 442.071,-330.784"/>
</g>
<!-- $(NAME) -->
<g id="node11" class="node"><title>$(NAME)</title>
<g id="a_node11"><a xlink:title="We don&#39;t support variable substitution &#45; names rendered as is and no color inferred">
<polygon fill="lightgrey" stroke="black" points="575.321,-75 517.321,-75 517.321,-39 575.321,-39 575.321,-75"/>
<text text-anchor="middle" x="546.321" y="-54.5" font-family="Times,serif" font-size="10.00">$(NAME)</text>
</a>
</g>
</g>
<!-- $(NAME)&#45;&gt;target3 -->
<g id="edge15" class="edge"><title>$(NAME)&#45;&gt;target3</title>
<path fill="none" stroke="black" d="M551.623,-75.178C554.937,-85.9171 559.276,-99.9748 563.038,-112.163"/>
<polygon fill="black" stroke="black" points="559.733,-113.324 566.027,-121.847 566.422,-111.259 559.733,-113.324"/>
</g>
<!-- cluster_inputs_DUMMY -->
<!-- cluster_not_implemented_DUMMY -->
<!-- cluster_inputs_DUMMY&#45;&gt;cluster_not_implemented_DUMMY -->
<!-- cluster_tools_DUMMY -->
<!-- cluster_inputs_DUMMY&#45;&gt;cluster_tools_DUMMY -->
<!-- forgot_to_implement -->
<g id="node13" class="node"><title>forgot_to_implement</title>
<g id="a_node13"><a xlink:title="forgot_to_implement">
<polygon fill="lightgrey" stroke="black" points="721.321,-158 617.321,-158 617.321,-122 721.321,-122 721.321,-158"/>
<text text-anchor="middle" x="669.321" y="-137.5" font-family="Times,serif" font-size="10.00">forgot_to_implement</text>
</a>
</g>
</g>
<!-- forgot_to_implement&#45;&gt;all -->
<g id="edge18" class="edge"><title>forgot_to_implement&#45;&gt;all</title>
<path fill="none" stroke="black" d="M651.549,-158.022C642.532,-167.706 632.258,-180.56 626.321,-194 566.377,-329.69 625.992,-384.222 576.321,-524 572.637,-534.367 566.972,-544.961 561.37,-554.104"/>
<polygon fill="black" stroke="black" points="558.31,-552.393 555.865,-562.702 564.205,-556.168 558.31,-552.393"/>
</g>
<!-- cluster_order_only_DUMMY -->
<!-- cluster_not_implemented_DUMMY&#45;&gt;cluster_order_only_DUMMY -->
<!-- cluster_not_implemented_DUMMY&#45;&gt;cluster_tools_DUMMY -->
<!-- target4 -->
<g id="node15" class="node"><title>target4</title>
<g id="a_node15"><a xlink:href="logs/205649e261aee13df1eb/target4/log.txt" xlink:title="target4">
<polygon fill="#c1b2ff" stroke="#c1b2ff" points="864.321,-377 810.321,-377 810.321,-341 864.321,-341 864.321,-377"/>
<text text-anchor="middle" x="837.321" y="-362" font-family="Times,serif" font-size="10.00">target4</text>
<text text-anchor="end" x="856.321" y="-351" font-family="Times,serif" font-size="10.00">0:00:05</text>
</a>
</g>
</g>
<!-- target_order_only_directory -->
<g id="node16" class="node"><title>target_order_only_directory</title>
<g id="a_node16"><a xlink:href="logs/205649e261aee13df1eb/target_order_only_directory/log.txt" xlink:title="Order only target should just be present. Useful for directories">
<polygon fill="#efffb2" stroke="#efffb2" points="792.321,-377 660.321,-377 660.321,-341 792.321,-341 792.321,-377"/>
<text text-anchor="middle" x="726.321" y="-356.5" font-family="Times,serif" font-size="10.00">target_order_only_directory</text>
</a>
</g>
</g>
<!-- cluster_result_DUMMY -->
<!-- cluster_result_DUMMY&#45;&gt;cluster_not_implemented_DUMMY -->
<!-- tool_target -->
<g id="node21" class="node"><title>tool_target</title>
<g id="a_node21"><a xlink:title="Tool targets are the ones that don&#39;t depend on anything and nobody depends on them. Think &#39;clean&#39;">
<polygon fill="lightgrey" stroke="black" points="1077.32,-377 1015.32,-377 1015.32,-341 1077.32,-341 1077.32,-377"/>
<text text-anchor="middle" x="1046.32" y="-356.5" font-family="Times,serif" font-size="10.00">tool_target</text>
</a>
</g>
</g>
<!-- clean -->
<g id="node22" class="node"><title>clean</title>
<g id="a_node22"><a xlink:title="Clean up things from previuous runs">
<polygon fill="lightgrey" stroke="black" points="997.321,-377 943.321,-377 943.321,-341 997.321,-341 997.321,-377"/>
<text text-anchor="middle" x="970.321" y="-356.5" font-family="Times,serif" font-size="10.00">clean</text>
</a>
</g>
</g>
<!-- cluster_tools_DUMMY&#45;&gt;cluster_result_DUMMY -->
</g>
</svg>
